<svg width="68.972" height="22.059" viewBox="-0.81 -0.354 68.972 22.059" xmlns="http://www.w3.org/2000/svg"><path fill="#ff5900" d="M52.797 16.174v4.757H40.984V-.352h11.813v4.744h-6.809V7.42h6.809v4.565h-6.809v4.189z"/><path d="M36.001-.352v8.71h-.055c-1.104-1.268-2.482-1.709-4.081-1.709-3.276 0-5.744 2.228-6.61 5.172-.989-3.244-3.537-5.233-7.315-5.233-3.068 0-5.491 1.377-6.755 3.621V7.42H4.843V4.392h6.921V-.352H-.81v21.283h5.653v-8.946h5.635a8.48 8.48 0 00-.258 2.104c0 4.439 3.392 7.555 7.72 7.555 3.64 0 6.039-1.709 7.307-4.824h-4.845c-.655.937-1.152 1.214-2.462 1.214-1.519 0-2.829-1.325-2.829-2.896h9.865c.428 3.526 3.175 6.567 6.944 6.567 1.626 0 3.115-.8 4.025-2.15H36v1.378h4.983V-.352zm-20.732 12.4c.314-1.352 1.363-2.235 2.672-2.235 1.441 0 2.436.856 2.698 2.235h-5.37zm17.707 5.643c-1.837 0-2.979-1.712-2.979-3.499 0-1.91.993-3.747 2.979-3.747 2.059 0 2.879 1.837 2.879 3.747 0 1.811-.869 3.499-2.879 3.499z" fill="#2a007c"/><path d="M62.98-.354v8.71h-.055c-1.104-1.268-2.482-1.709-4.08-1.709-3.277 0-5.745 2.228-6.61 5.172-.35 1.055-.28 3.317-.28 3.317.428 3.526 3.175 6.567 6.944 6.567 1.626 0 3.115-.8 4.025-2.15h.055v1.378h4.983V-.354zm-3.025 18.043c-1.837 0-2.979-1.712-2.979-3.499 0-1.91.993-3.747 2.98-3.747 2.058 0 2.878 1.837 2.878 3.747 0 1.811-.869 3.499-2.879 3.499z" fill="#ff5900"/></svg>